<?xml version="1.0" encoding="UTF-8" standalone="no"?>
<!-- Created with Inkscape (http://www.inkscape.org/) -->

<svg
   width="210mm"
   height="297mm"
   viewBox="0 0 210 297"
   version="1.1"
   id="svg1"
   xml:space="preserve"
   inkscape:version="1.3.2 (091e20e, 2023-11-25, custom)"
   sodipodi:docname="Hackenheim.svg"
   xmlns:inkscape="http://www.inkscape.org/namespaces/inkscape"
   xmlns:sodipodi="http://sodipodi.sourceforge.net/DTD/sodipodi-0.dtd"
   xmlns="http://www.w3.org/2000/svg"
   xmlns:svg="http://www.w3.org/2000/svg"><sodipodi:namedview
     id="namedview1"
     pagecolor="#ffffff"
     bordercolor="#000000"
     borderopacity="0.25"
     inkscape:showpageshadow="2"
     inkscape:pageopacity="0.0"
     inkscape:pagecheckerboard="0"
     inkscape:deskcolor="#d1d1d1"
     inkscape:document-units="mm"
     inkscape:zoom="0.79152285"
     inkscape:cx="305.10806"
     inkscape:cy="680.96581"
     inkscape:window-width="1620"
     inkscape:window-height="1010"
     inkscape:window-x="-6"
     inkscape:window-y="-6"
     inkscape:window-maximized="1"
     inkscape:current-layer="svg1" /><defs
     id="defs1" /><path
     style="fill:none;fill-opacity:1;stroke:#a71dff;stroke-width:2.5;stroke-dasharray:none;stroke-opacity:1"
     d="m 12.104888,203.01997 c -0.20915,-0.50236 -0.522877,-1.08861 -0.782905,-1.60867 -0.491318,-0.98264 -0.948684,-1.9814 -1.4393339,-2.96333 -1.224427,-2.45043 -2.416052,-4.91677 -3.640666,-7.366 -0.457633,-0.91527 -1.154881,-1.9669 -1.367276,-2.96333 -0.08478,-0.39774 -0.146816,-0.69817 -0.196249,-1.10067 -0.06058,-0.49326 -0.0039,-1.02249 0.0718,-1.524 0.414614,-2.74853 1.879241,-5.21614 3.186433,-7.62 1.39909,-2.57285 3.0097189,-5.04726 4.6741089,-7.45067 2.980157,-4.30338 6.489988,-8.36965 9.978711,-12.27666 5.654086,-6.332 11.40404,-12.58849 17.370386,-18.62667 3.071293,-3.10827 6.05332,-6.30699 9.144325,-9.39799 0.887998,-0.888 1.988153,-2.57743 3.217333,-2.93002 0.313873,-0.09 0.603064,-0.17182 0.931334,-0.18057 0.294617,-0.008 0.564477,0.0793 0.846666,0.16045 1.065232,0.3065 1.823362,1.83014 2.306645,2.7808 0.327794,0.64481 0.797362,1.56917 0.931529,2.286 0.06413,0.34261 0.121052,0.66172 0.171421,1.016 0.277922,1.95485 -0.484575,4.04661 -0.252754,6.01133 0.09131,0.7739 0.160848,1.657 0.438748,2.37067 0.394741,1.01373 1.557244,1.70941 2.415744,2.35969 1.932973,1.46415 3.866829,2.97312 5.926667,4.24431"
     id="S1_Hackenheim"
     inkscape:export-filename="S1_Hackenheim.svg"
     inkscape:export-xdpi="96"
     inkscape:export-ydpi="96" /><path
     style="fill:none;stroke:#a71dff;stroke-width:2.5;stroke-dasharray:none;stroke-opacity:1"
     d="m 14.682732,222.0739 c 0.890269,2.13832 2.07567,4.19315 3.111762,6.26533 1.873442,3.74688 3.714002,7.51268 5.588002,11.26067 1.57698,3.15395 3.12037,6.32645 4.69848,9.48267 0.71499,1.42998 1.48558,2.89591 2.19663,4.318 1.55276,3.10552 3.16089,6.55549 4.85853,9.56733 0.66966,1.18806 1.2357,2.8327 2.23857,3.80634 0.36222,0.35166 0.80499,0.58408 1.26869,0.76775 0.78881,0.31244 1.68875,0.35324 2.54,0.43561 1.26361,0.12229 2.70237,0.005 3.89467,-0.41189 0.96048,-0.33622 1.84781,-1.02202 2.70933,-1.57588 1.80451,-1.16007 3.59672,-2.3374 5.334,-3.57893 1.08849,-0.77787 2.21737,-1.58717 3.12476,-2.57567 0.55016,-0.59933 0.72276,-1.16517 0.87117,-1.94733 0.21646,-1.14079 0.12302,-2.34905 -0.31293,-3.38667 -0.56007,-1.33308 -1.733,-2.46817 -2.60506,-3.64066 -2.0691,-2.78194 -4.0891,-6.55843 -7.2586,-8.14421 -1.15353,-0.57713 -2.424,-1.01765 -3.64067,-1.42313 -0.77362,-0.25782 -1.54631,-0.45687 -2.286,-0.82576 -0.61352,-0.30597 -1.35398,-0.56774 -1.85378,-1.05258 -0.37073,-0.35964 -0.60882,-0.87658 -0.8336,-1.33899 -1.15516,-2.37634 -1.6071,-5.1462 -2.21349,-7.70467 -0.37376,-1.57697 -0.91252,-3.3926 -0.75742,-4.99533 0.0433,-0.44714 0.11227,-0.84196 0.23316,-1.27 0.23623,-0.83649 0.85982,-1.57554 1.53046,-2.13751 0.93481,-0.78332 1.96885,-1.47576 3.13267,-1.85143 0.45648,-0.14734 0.89121,-0.18164 1.35467,-0.24439 0.77234,-0.10459 1.55549,0.0265 2.286,0.2325 1.04828,0.29558 1.86143,1.19605 2.50831,2.0535 1.1557,1.53187 2.31743,3.06313 3.50302,4.572 4.29408,5.46493 8.49332,11.00261 12.94721,16.34066 1.42582,1.70887 2.83277,3.61485 4.57879,5.0116 0.61923,0.49537 1.44534,0.98975 2.20133,1.23538 2.09744,0.68147 4.09638,0.70284 6.26534,0.30829 0.91687,-0.16679 1.84642,-0.46509 2.70933,-0.83413 2.76885,-1.18413 5.26618,-3.19811 7.789337,-4.84534 7.23414,-4.72275 14.416987,-9.5386 21.505327,-14.42462 2.95434,-2.03644 5.76236,-4.44647 8.80533,-6.34784"
     id="S3_Hackenheim"
     inkscape:export-filename="S3_Hackenheim.svg"
     inkscape:export-xdpi="96"
     inkscape:export-ydpi="96" /><path
     style="fill:none;stroke:#a71dff;stroke-width:2.5;stroke-dasharray:none;stroke-opacity:1"
     d="m 87.496089,145.842 c 0.817953,0.54125 1.842376,1.13934 2.709333,1.6595 2.011376,1.20679 4.10313,2.43809 6.180667,3.4842 2.952895,1.48688 5.919601,3.05879 8.974671,4.3877 5.70305,2.48076 11.53717,4.52278 17.52599,6.14474 4.66593,1.26368 9.65904,2.31283 14.478,2.52386 4.35398,0.19068 8.63466,-0.28191 12.954,-0.74462 9.11666,-0.97661 18.21395,-3.13025 27.00867,-5.63772 11.17175,-3.18518 22.16024,-7.05899 32.93533,-11.44541 1.61392,-0.65701 3.22325,-1.33269 4.826,-2.01658 1.42827,-0.60944 2.65604,-1.28087 4.14867,-1.4641 0.42614,-0.0523 1.46066,-0.0249 1.81923,0.35082 0.38903,0.40763 0.38363,0.97307 0.28607,1.40295 -0.34075,1.50134 -1.72369,2.11459 -2.95197,2.96117 -4.66151,3.2129 -9.42965,6.2886 -14.13933,9.42838 -7.04289,4.69526 -14.12288,9.33059 -21.16667,14.02645 -3.58129,2.38752 -7.24208,5.6149 -11.684,5.91908 -1.11752,0.0765 -2.27471,-0.11332 -3.38666,-0.23237 -1.88988,-0.20233 -3.7815,-0.40332 -5.67267,-0.5924 -5.86391,-0.58631 -11.74673,-1.22031 -17.61067,-1.80662 -2.6164,-0.26161 -5.27936,-0.76014 -7.874,-0.74763 -0.63778,0.003 -1.37175,0.0339 -1.94733,0.45966 -0.5772,0.42694 -0.8768,1.00231 -1.08558,1.65694 -0.87274,2.73654 -0.31213,5.63074 0.57758,8.29734 0.4992,1.49616 1.36373,2.90373 2.20584,4.23333 0.95072,1.5011 2.20314,2.98852 2.79459,4.65667 0.15489,0.43686 0.19701,0.90198 0.25994,1.35466 0.1454,1.04595 -8e-4,2.26247 -0.42267,3.21734 -0.55561,1.25756 -1.49947,2.24976 -2.46703,3.21733"
     id="S2_Hackenheim"
     inkscape:export-filename="S2_Hackenheim.svg"
     inkscape:export-xdpi="96"
     inkscape:export-ydpi="96" /></svg>
