<?xml version="1.0" encoding="UTF-8" standalone="no"?>
<!-- Created with Inkscape (http://www.inkscape.org/) -->

<svg
   width="103.83968mm"
   height="50.690769mm"
   viewBox="0 0 103.83968 50.690769"
   version="1.1"
   id="svg1"
   xml:space="preserve"
   xmlns="http://www.w3.org/2000/svg"
   xmlns:svg="http://www.w3.org/2000/svg"><defs
     id="defs1" /><path
     style="fill:none;stroke:#a71dff;stroke-width:2.5;stroke-dasharray:none;stroke-opacity:1"
     d="m 1.1539794,3.4890826 c 0.890269,2.13832 2.07567,4.19315 3.111762,6.26533 1.873442,3.7468804 3.714002,7.5126804 5.588002,11.2606704 1.5769796,3.15395 3.1203696,6.32645 4.6984796,9.48267 0.71499,1.42998 1.48558,2.89591 2.19663,4.318 1.55276,3.10552 3.16089,6.55549 4.85853,9.56733 0.66966,1.18806 1.2357,2.8327 2.23857,3.80634 0.36222,0.35166 0.80499,0.58408 1.26869,0.76775 0.78881,0.31244 1.68875,0.35324 2.54,0.43561 1.26361,0.12229 2.70237,0.005 3.89467,-0.41189 0.96048,-0.33622 1.84781,-1.02202 2.70933,-1.57588 1.80451,-1.16007 3.59672,-2.3374 5.334,-3.57893 1.08849,-0.77787 2.21737,-1.58717 3.12476,-2.57567 0.55016,-0.59933 0.72276,-1.16517 0.87117,-1.94733 0.21646,-1.14079 0.12302,-2.34905 -0.31293,-3.38667 -0.56007,-1.33308 -1.733,-2.46817 -2.60506,-3.64066 -2.0691,-2.78194 -4.0891,-6.55843 -7.2586,-8.14421 -1.15353,-0.57713 -2.424,-1.01765 -3.64067,-1.42313 -0.77362,-0.25782 -1.54631,-0.45687 -2.286,-0.82576 -0.61352,-0.30597 -1.35398,-0.56774 -1.85378,-1.05258 -0.37073,-0.35964 -0.60882,-0.87658 -0.8336,-1.33899 -1.15516,-2.37634 -1.6071,-5.1462 -2.21349,-7.70467 -0.37376,-1.57697 -0.91252,-3.3926004 -0.75742,-4.9953304 0.0433,-0.44714 0.11227,-0.84196 0.23316,-1.27 0.23623,-0.83649 0.85982,-1.57554 1.53046,-2.13751 0.93481,-0.78332 1.96885,-1.47576 3.13267,-1.85143 0.45648,-0.14734 0.89121,-0.18164 1.35467,-0.24439 0.77234,-0.10459 1.55549,0.0265 2.286,0.2325 1.04828,0.29558 1.86143,1.19605 2.50831,2.0535 1.1557,1.53187 2.31743,3.06313 3.50302,4.572 4.29408,5.4649304 8.49332,11.0026104 12.94721,16.3406604 1.42582,1.70887 2.83277,3.61485 4.57879,5.0116 0.61923,0.49537 1.44534,0.98975 2.20133,1.23538 2.09744,0.68147 4.09638,0.70284 6.26534,0.30829 0.91687,-0.16679 1.84642,-0.46509 2.70933,-0.83413 2.76885,-1.18413 5.26618,-3.19811 7.789337,-4.84534 7.23414,-4.72275 14.416987,-9.5386 21.505327,-14.42462 2.95434,-2.0364404 5.762363,-4.4464704 8.805333,-6.3478404"
     id="S3_Hackenheim" /></svg>
