<?xml version="1.0" encoding="UTF-8" standalone="no"?>
<!-- Created with Inkscape (http://www.inkscape.org/) -->

<svg width="63.292698mm" height="77.739655mm" viewBox="0 0 63.292698 77.739655" version="1.1" id="svg1"
  xml:space="preserve" xmlns="http://www.w3.org/2000/svg" xmlns:svg="http://www.w3.org/2000/svg">

  <defs id="defs1" />

  <path stroke="#a71dff" style="fill:none;fill-opacity:1;stroke-width:2.5;stroke-dasharray:none;stroke-opacity:1"
    d="m 8.7035644,77.259201 c -0.20915,-0.50236 -0.522877,-1.08861 -0.782905,-1.60867 -0.491318,-0.98264 -0.948684,-1.9814 -1.4393339,-2.96333 -1.224427,-2.45043 -2.416052,-4.91677 -3.640666,-7.366 -0.457633,-0.91527 -1.154881,-1.9669 -1.367276,-2.96333 -0.08478,-0.39774 -0.146816,-0.69817 -0.196249,-1.10067 -0.06058,-0.49326 -0.0039,-1.02249 0.0718,-1.524 0.414614,-2.74853 1.879241,-5.21614 3.186433,-7.62 1.39909,-2.57285 3.0097189,-5.04726 4.6741089,-7.45067 2.9801566,-4.30338 6.4899876,-8.36965 9.9787106,-12.27666 5.654086,-6.332 11.40404,-12.58849 17.370386,-18.62667 3.071293,-3.10827 6.05332,-6.3069902 9.144325,-9.3979902 0.887998,-0.888 1.988153,-2.57743 3.217333,-2.93002 0.313873,-0.09 0.603064,-0.17182 0.931334,-0.18057 0.294617,-0.008 0.564477,0.0793 0.846666,0.16045 1.065232,0.3065 1.823362,1.83014 2.306645,2.7808 0.327794,0.64481 0.797362,1.56917 0.931529,2.286 0.06413,0.34261 0.121052,0.66172 0.171421,1.016 0.277922,1.95485 -0.484575,4.0466102 -0.252754,6.0113302 0.09131,0.7739 0.160848,1.657 0.438748,2.37067 0.394741,1.01373 1.557244,1.70941 2.415744,2.35969 1.932973,1.46415 3.866829,2.97312 5.926667,4.24431"
    id="S1_Hackenheim" />

</svg>