<?xml version="1.0" encoding="UTF-8" standalone="no"?>
<!-- Created with Inkscape (http://www.inkscape.org/) -->

<svg
   width="135.84126mm"
   height="59.960117mm"
   viewBox="0 0 135.84126 59.960117"
   version="1.1"
   id="svg1"
   xml:space="preserve"
   xmlns="http://www.w3.org/2000/svg"
   xmlns:svg="http://www.w3.org/2000/svg"><defs
     id="defs1" /><path
     style="fill:none;stroke:#a71dff;stroke-width:2.5;stroke-dasharray:none;stroke-opacity:1"
     d="m 0.68979733,4.38157 c 0.81795297,0.54125 1.84237597,1.13934 2.70933297,1.6595 2.011376,1.20679 4.10313,2.43809 6.180667,3.4842 2.9528947,1.48688 5.9196007,3.05879 8.9746707,4.3877 5.70305,2.48076 11.53717,4.52278 17.52599,6.14474 4.66593,1.26368 9.65904,2.31283 14.478,2.52386 4.35398,0.19068 8.63466,-0.28191 12.954,-0.74462 9.11666,-0.97661 18.21395,-3.13025 27.00867,-5.63772 11.171752,-3.18518 22.160242,-7.05899 32.935332,-11.44541 1.61392,-0.65701 3.22325,-1.33269 4.826,-2.01658 1.42827,-0.60944 2.65604,-1.28087 4.14867,-1.4641 0.42614,-0.0523 1.46066,-0.0249 1.81923,0.35082 0.38903,0.40763 0.38363,0.97307 0.28607,1.40295 -0.34075,1.50134 -1.72369,2.11459 -2.95197,2.96117 -4.66151,3.2129 -9.42965,6.2886 -14.13933,9.42838 -7.04289,4.69526 -14.12288,9.33059 -21.166672,14.02645 -3.58129,2.38752 -7.24208,5.6149 -11.684,5.91908 -1.11752,0.0765 -2.27471,-0.11332 -3.38666,-0.23237 -1.88988,-0.20233 -3.7815,-0.40332 -5.67267,-0.5924 -5.86391,-0.58631 -11.74673,-1.22031 -17.61067,-1.80662 -2.6164,-0.26161 -5.27936,-0.76014 -7.874,-0.74763 -0.63778,0.003 -1.37175,0.0339 -1.94733,0.45966 -0.5772,0.42694 -0.8768,1.00231 -1.08558,1.65694 -0.87274,2.73654 -0.31213,5.63074 0.57758,8.29734 0.4992,1.49616 1.36373,2.90373 2.20584,4.23333 0.95072,1.5011 2.20314,2.98852 2.79459,4.65667 0.15489,0.43686 0.19701,0.90198 0.25994,1.35466 0.1454,1.04595 -8e-4,2.26247 -0.42267,3.21734 -0.55561,1.25756 -1.49947,2.24976 -2.46703,3.21733"
     id="S2_Hackenheim" /></svg>
